<?xml version="1.0" standalone="no"?>
<!DOCTYPE svg PUBLIC "-//W3C//DTD SVG 20010904//EN"
 "http://www.w3.org/TR/2001/REC-SVG-20010904/DTD/svg10.dtd">
<svg version="1.0" xmlns="http://www.w3.org/2000/svg"
 width="500.000000pt" height="500.000000pt" viewBox="0 0 500.000000 500.000000"
 preserveAspectRatio="xMidYMid meet">

<g transform="translate(0.000000,500.000000) scale(0.100000,-0.100000)"
fill="#000000" stroke="none">
<path d="M1080 2765 c0 -63 -1 -65 -25 -65 -23 0 -25 -4 -25 -45 0 -41 2 -45
25 -45 25 0 25 -1 25 -80 0 -157 62 -220 177 -179 24 8 30 15 26 30 -5 19 -3
18 31 -5 43 -29 107 -41 176 -33 120 14 149 62 150 240 l0 117 -60 0 -60 0 0
-102 c0 -129 -10 -152 -67 -156 -63 -5 -73 17 -73 150 l0 108 -90 0 -90 0 0
65 0 65 -60 0 -60 0 0 -65z m178 -232 c-3 -67 -6 -78 -22 -81 -27 -6 -36 15
-36 91 l0 67 30 0 31 0 -3 -77z"/>
<path d="M3120 2765 l0 -65 -75 0 -75 0 0 -88 c0 -92 -11 -150 -32 -164 -23
-14 -74 -9 -91 10 -14 15 -17 40 -17 130 l0 112 -61 0 -61 0 4 -139 c3 -138 3
-140 32 -170 51 -53 196 -67 274 -27 44 23 61 61 68 160 5 62 11 86 20 86 11
0 14 -20 14 -85 0 -51 6 -99 14 -120 19 -45 66 -69 124 -62 60 7 68 16 53 69
-11 38 -16 44 -39 43 -27 0 -27 1 -30 78 l-3 77 36 0 c35 0 35 0 35 45 0 45 0
45 -35 45 l-35 0 0 65 0 65 -60 0 -60 0 0 -65z"/>
<path d="M1825 2695 c-16 -9 -36 -23 -42 -32 -11 -15 -13 -14 -13 10 0 26 -2
27 -60 27 l-60 0 0 -175 0 -175 60 0 60 0 0 103 c0 112 10 140 54 151 14 3 37
1 52 -4 21 -8 29 -8 36 2 4 7 8 -47 8 -119 l0 -133 60 0 60 0 0 106 c0 103 1
106 29 135 36 35 54 36 86 4 24 -23 25 -31 25 -135 l0 -110 60 0 60 0 0 48 0
47 21 -32 c45 -71 159 -93 228 -44 31 22 31 22 31 2 0 -19 6 -21 55 -21 l55 0
0 175 0 175 -55 0 c-42 0 -55 -3 -55 -15 0 -19 2 -19 -45 5 -22 11 -55 20 -74
20 -48 0 -117 -36 -138 -71 -22 -36 -26 -36 -40 1 -8 21 -25 36 -55 50 -55 25
-104 25 -146 0 -39 -24 -42 -24 -42 -5 0 11 -12 15 -49 15 -26 0 -68 2 -92 6
-30 3 -54 0 -74 -11z m726 -114 c17 -18 29 -40 29 -56 0 -34 -50 -85 -84 -85
-41 0 -80 41 -80 85 0 29 7 43 28 61 37 32 71 30 107 -5z"/>
<path d="M3473 2490 c-70 -29 -47 -150 29 -150 81 0 109 108 37 145 -32 17
-35 17 -66 5z"/>
</g>
</svg>
