<?xml version="1.0" standalone="no"?>
<!DOCTYPE svg PUBLIC "-//W3C//DTD SVG 20010904//EN"
 "http://www.w3.org/TR/2001/REC-SVG-20010904/DTD/svg10.dtd">
<svg version="1.0" xmlns="http://www.w3.org/2000/svg"
 width="500.000000pt" height="500.000000pt" viewBox="0 0 500.000000 500.000000"
 preserveAspectRatio="xMidYMid meet">

<g transform="translate(0.000000,500.000000) scale(0.100000,-0.100000)"
fill="#000000" stroke="none">
<path d="M2650 3375 c-19 -22 -8 -25 13 -3 9 10 13 18 8 18 -5 0 -14 -7 -21
-15z"/>
<path d="M2726 3373 c19 -19 18 -29 -5 -45 -11 -8 -22 -27 -26 -43 -5 -29 -5
-29 5 -5 6 14 21 35 32 47 12 13 18 29 14 38 -4 12 -1 16 12 13 15 -3 17 -16
18 -100 l1 -97 -31 21 -31 22 20 -23 c11 -13 28 -27 38 -33 17 -9 18 -6 15 28
-2 25 1 39 11 42 10 3 12 -1 8 -19 -4 -13 -7 -37 -7 -53 0 -16 -3 -26 -7 -23
-3 4 -12 -1 -19 -11 -12 -16 -13 -16 -31 1 -27 24 -40 22 -18 -3 10 -11 26
-20 37 -20 15 0 18 -8 18 -44 0 -56 -8 -76 -29 -76 -24 0 -43 47 -28 70 9 15
7 23 -8 40 -10 11 -20 18 -23 15 -3 -3 3 -13 12 -24 15 -16 15 -22 4 -40 -9
-15 -10 -24 -2 -29 6 -4 13 -15 17 -24 4 -11 17 -18 32 -18 18 0 25 -5 25 -19
0 -16 -5 -17 -38 -11 -21 3 -50 19 -65 34 -19 19 -33 25 -48 21 -11 -4 -27 -1
-36 7 -15 11 -16 11 -10 -4 9 -25 -14 -23 -47 3 -22 17 -25 24 -14 36 6 8 22
13 35 10 30 -6 57 25 49 56 -8 34 21 57 75 59 24 1 38 3 31 6 -7 2 -9 8 -6 14
3 5 -7 23 -22 39 -21 22 -29 40 -29 67 l0 37 -47 2 c-40 2 -50 -1 -68 -24 -11
-14 -20 -33 -20 -43 0 -9 -9 -25 -20 -35 -11 -10 -20 -22 -20 -28 0 -5 8 1 18
14 27 32 52 19 52 -26 0 -24 -6 -39 -20 -47 -11 -7 -20 -20 -20 -28 0 -9 -6
-22 -12 -28 -10 -10 -10 -14 -1 -20 8 -5 10 -21 6 -45 -4 -28 -10 -37 -25 -37
-23 0 -34 26 -18 45 9 11 8 19 -4 37 -13 17 -16 19 -16 6 0 -9 5 -20 10 -23 8
-5 7 -11 -1 -21 -6 -8 -8 -25 -5 -39 6 -22 10 -24 34 -19 l27 6 -23 -23 c-19
-20 -24 -22 -32 -9 -5 8 -10 10 -10 4 0 -6 9 -19 20 -29 11 -10 20 -26 20 -36
0 -26 30 -38 76 -32 34 4 43 1 68 -26 17 -17 24 -31 17 -31 -7 0 -21 -10 -30
-22 -23 -28 -57 -19 -41 12 6 11 16 20 22 20 6 0 3 -10 -8 -22 -18 -20 -18
-21 -1 -15 10 4 21 7 23 7 2 0 4 6 4 14 0 8 6 17 13 19 17 8 -43 0 -70 -8 -18
-6 -25 -2 -32 16 -5 13 -10 17 -10 9 -1 -8 17 -35 39 -59 34 -37 44 -42 66
-37 28 7 76 50 87 76 4 12 6 12 6 -2 1 -9 -6 -24 -16 -33 -14 -14 -14 -18 -2
-26 32 -20 99 27 99 71 0 14 -5 31 -11 37 -8 8 -8 13 0 17 6 4 12 28 12 54 l2
47 7 -45 c4 -25 10 -52 14 -61 4 -10 3 -20 -3 -24 -20 -12 -11 -46 18 -76 32
-32 62 -37 81 -14 11 14 14 13 27 -5 23 -33 103 -23 103 14 0 5 -8 2 -18 -7
-10 -10 -28 -17 -40 -17 -24 0 -53 36 -45 56 8 20 31 17 43 -6 8 -15 19 -20
41 -18 33 3 71 40 63 62 -3 8 2 16 10 19 9 4 16 15 16 25 0 10 8 26 19 36 15
13 18 31 18 95 0 72 -1 78 -18 74 -23 -6 -49 13 -49 37 0 9 -9 25 -20 35 -24
22 -27 73 -4 82 22 8 44 -17 51 -62 5 -33 43 -91 43 -66 0 5 -7 14 -15 21 -8
7 -15 25 -15 40 0 16 -11 42 -25 58 -14 17 -25 39 -25 49 0 29 -45 67 -71 60
-15 -4 -30 3 -52 26 -20 22 -25 24 -14 8 12 -18 14 -28 6 -38 -6 -7 -9 -25 -6
-40 4 -21 -1 -35 -19 -54 -14 -15 -26 -33 -27 -40 -2 -8 -7 -20 -11 -28 -7
-11 -6 -12 5 -5 41 25 116 -17 103 -58 -8 -26 23 -60 48 -52 21 6 48 -11 48
-31 0 -12 -29 -29 -70 -41 l-25 -7 20 24 c11 13 13 18 5 12 -9 -7 -31 -11 -49
-11 -26 1 -40 -6 -56 -25 -12 -17 -31 -27 -46 -27 -14 0 -30 -5 -37 -12 -9 -9
-12 -6 -12 15 0 23 4 27 30 27 19 0 30 5 30 14 0 7 7 19 15 26 13 11 13 15 0
33 -13 19 -13 23 2 41 16 20 16 20 -6 0 -20 -19 -21 -24 -9 -44 10 -18 10 -24
1 -27 -7 -3 -13 -11 -13 -19 0 -19 -36 -18 -44 2 -3 9 -6 33 -6 55 0 32 4 41
24 49 13 5 27 14 31 20 3 5 11 7 17 4 7 -5 8 -2 4 5 -6 9 -12 9 -25 -3 -23
-21 -37 -20 -45 1 -5 12 4 28 28 51 41 38 43 44 19 63 -16 13 -17 12 -4 -4 13
-16 11 -21 -16 -48 l-30 -31 0 56 c0 55 9 77 22 56 3 -5 11 -10 17 -10 6 0 -1
11 -16 25 -14 13 -26 34 -27 47 -1 23 -1 23 -9 -2 l-8 -25 -1 26 c-1 33 -18
47 -53 47 -23 0 -25 -2 -12 -15z m-126 -55 c0 -7 23 -36 51 -64 28 -29 48 -57
45 -63 -14 -22 -54 -11 -85 24 -41 47 -50 45 -12 -4 29 -37 30 -39 12 -55 -16
-15 -19 -15 -34 2 -10 10 -17 33 -17 51 0 19 -6 34 -15 37 -19 8 -19 34 1 62
16 23 54 30 54 10z m50 -15 c0 -25 0 -26 -20 -8 -11 10 -20 22 -20 27 0 4 9 8
20 8 15 0 20 -7 20 -27z m330 13 c0 -17 -24 -38 -33 -29 -15 15 -6 43 13 43
11 0 20 -6 20 -14z m64 -8 c20 -28 20 -52 1 -68 -8 -7 -15 -24 -15 -38 0 -14
-7 -34 -17 -44 -15 -17 -18 -17 -34 -2 -18 16 -17 18 12 58 l31 41 -35 -37
c-33 -37 -78 -51 -91 -29 -4 5 16 34 44 64 27 30 50 60 50 66 0 20 38 12 54
-11z m-234 -14 c0 -17 -22 -14 -28 4 -2 7 3 12 12 12 9 0 16 -7 16 -16z m-222
-168 c8 -15 11 -30 8 -34 -11 -10 -59 45 -51 57 10 18 28 8 43 -23z m457 24
c3 -6 -4 -24 -16 -41 -27 -39 -45 -25 -23 19 16 33 28 40 39 22z m-487 -50
l23 -30 -36 0 c-37 0 -38 2 -29 38 8 29 16 28 42 -8z m252 14 c0 -17 -22 -14
-28 4 -2 7 3 12 12 12 9 0 16 -7 16 -16z m267 -14 c9 -23 17 -30 38 -30 23 0
25 -3 16 -14 -8 -10 -9 -16 -1 -21 16 -10 12 -45 -6 -52 -22 -8 -33 6 -36 49
-2 37 -3 37 -40 34 -21 -2 -38 -2 -38 1 0 7 44 62 50 62 3 1 11 -12 17 -29z
m-280 -62 c-2 -13 -4 -5 -4 17 -1 22 1 32 4 23 2 -10 2 -28 0 -40z m13 -43 c0
-8 -7 -15 -15 -15 -16 0 -20 12 -8 23 11 12 23 8 23 -8z m-145 -9 c17 -12 18
-17 6 -39 l-14 -25 -24 29 c-14 16 -30 29 -35 29 -6 0 1 -11 16 -25 32 -30 33
-70 1 -70 -13 0 -19 6 -17 15 3 12 1 13 -9 3 -10 -11 -9 -16 6 -27 11 -8 26
-11 35 -8 11 4 12 2 4 -7 -8 -8 -18 -7 -42 5 -35 17 -38 24 -19 43 10 11 9 13
-3 9 -8 -3 -16 -14 -18 -25 -3 -22 -27 -37 -42 -28 -5 3 -16 19 -24 36 -15 29
-14 32 11 55 15 14 39 24 57 25 17 1 42 5 56 9 35 11 34 11 55 -4z m412 0 c-3
-7 5 -23 19 -35 18 -16 22 -25 15 -39 -5 -9 -12 -25 -15 -35 -8 -25 -50 -19
-54 8 -2 11 -8 25 -14 30 -6 7 -7 1 -3 -16 5 -22 2 -27 -16 -32 -16 -4 -19 -3
-10 6 14 14 14 37 -1 37 -6 0 -8 -3 -5 -7 4 -3 2 -12 -4 -20 -14 -17 -39 1
-39 27 0 25 56 70 86 70 13 0 24 5 24 10 0 6 5 10 11 10 6 0 9 -6 6 -14z m-95
-2 c3 -3 -5 -16 -18 -29 -13 -13 -24 -35 -24 -49 0 -35 -10 -56 -27 -56 -10 0
-13 9 -9 38 4 26 3 29 -2 12 -10 -31 -61 -40 -82 -15 -20 25 0 49 46 57 30 5
42 3 52 -10 12 -15 12 -14 7 10 -4 15 -4 32 0 37 6 12 48 15 57 5z m155 -31
c9 -24 -3 -24 -26 1 l-23 25 22 -6 c12 -3 24 -12 27 -20z m-369 -19 c8 -2 12
-15 10 -31 -3 -24 -8 -28 -40 -31 -35 -3 -38 -1 -38 22 0 14 -5 26 -11 26 -7
0 -9 -12 -5 -35 5 -23 3 -35 -4 -35 -6 0 -8 -4 -5 -10 4 -6 -1 -7 -11 -3 -10
4 -13 8 -7 10 9 3 9 11 1 27 -8 18 -6 29 7 50 15 23 22 26 54 20 20 -3 42 -7
49 -10z m204 -69 c6 -6 -47 -63 -60 -65 -18 -3 -10 21 15 44 29 27 36 30 45
21z m-202 -9 c0 -2 -15 -6 -34 -8 -19 -2 -32 0 -30 4 5 8 64 12 64 4z m117 -8
c4 -7 6 -23 5 -35 -2 -11 2 -24 8 -28 12 -7 -4 -35 -20 -35 -17 0 -70 52 -70
69 0 36 58 58 77 29z m167 6 c21 -8 20 -53 -1 -61 -9 -4 -19 -1 -21 5 -2 7
-13 12 -25 12 -12 0 -28 4 -36 9 -10 7 -8 12 10 25 25 17 47 20 73 10z m-34
-64 c0 -5 -4 -10 -9 -10 -6 0 -13 5 -16 10 -3 6 1 10 9 10 9 0 16 -4 16 -10z"/>
<path d="M2816 3382 c-3 -5 5 -7 18 -5 21 4 23 2 19 -20 -4 -18 1 -28 15 -36
12 -6 23 -23 25 -38 l4 -28 2 27 c0 18 -6 32 -19 40 -22 14 -26 38 -10 54 6 6
0 11 -19 12 -17 1 -32 -2 -35 -6z"/>
<path d="M2736 3265 c-20 -30 -21 -41 -2 -26 12 10 29 51 21 51 -1 0 -10 -11
-19 -25z"/>
<path d="M2471 3171 c-1 -14 -8 -33 -18 -43 -23 -25 -13 -29 13 -4 15 16 19
27 13 46 l-7 25 -1 -24z"/>
</g>
</svg>
