<?xml version="1.0" standalone="no"?>
<!DOCTYPE svg PUBLIC "-//W3C//DTD SVG 20010904//EN"
 "http://www.w3.org/TR/2001/REC-SVG-20010904/DTD/svg10.dtd">
<svg version="1.0" xmlns="http://www.w3.org/2000/svg"
 width="500.000000pt" height="500.000000pt" viewBox="0 0 500.000000 500.000000"
 preserveAspectRatio="xMidYMid meet">

<g transform="translate(0.000000,500.000000) scale(0.100000,-0.100000)"
fill="#000000" stroke="none">
<path d="M1520 3255 l0 -785 1055 0 1055 0 0 785 0 785 -1055 0 -1055 0 0
-785z m1190 560 c172 -53 260 -142 276 -280 l7 -55 -166 0 -165 0 -7 29 c-10
44 -50 79 -101 87 -91 13 -184 -20 -184 -67 0 -11 10 -30 23 -43 23 -23 43
-29 274 -85 153 -37 219 -67 277 -124 58 -59 81 -130 73 -233 -18 -234 -213
-357 -542 -340 -308 15 -453 115 -480 329 l-7 57 171 0 171 0 0 -25 c0 -76 55
-109 180 -109 88 1 130 17 145 58 8 25 6 31 -17 51 -29 25 -58 34 -260 82
-159 39 -224 69 -287 131 -57 57 -81 120 -81 212 0 174 114 291 327 335 89 19
297 13 373 -10z"/>
</g>
</svg>
