<?xml version="1.0" standalone="no"?>
<!DOCTYPE svg PUBLIC "-//W3C//DTD SVG 20010904//EN"
 "http://www.w3.org/TR/2001/REC-SVG-20010904/DTD/svg10.dtd">
<svg version="1.0" xmlns="http://www.w3.org/2000/svg"
 width="500.000000pt" height="500.000000pt" viewBox="0 0 500.000000 500.000000"
 preserveAspectRatio="xMidYMid meet">

<g transform="translate(0.000000,500.000000) scale(0.100000,-0.100000)"
fill="#000000" stroke="none">
<path d="M832 2988 l3 -73 1665 0 1665 0 3 73 3 72 -1671 0 -1671 0 3 -72z"/>
<path d="M1155 2776 c-50 -22 -68 -51 -73 -116 -6 -84 18 -118 118 -168 56
-28 76 -43 78 -60 2 -12 -1 -22 -7 -22 -6 0 -11 9 -11 20 0 19 -7 20 -95 20
l-96 0 6 -37 c9 -48 33 -83 76 -108 27 -16 52 -20 124 -20 134 1 185 35 192
128 3 40 -1 62 -19 97 -20 39 -34 50 -103 85 -47 24 -81 47 -83 58 -2 10 3 17
12 17 9 0 16 -8 16 -20 0 -18 7 -20 85 -20 l85 0 0 30 c0 85 -69 130 -196 130
-43 -1 -92 -7 -109 -14z"/>
<path d="M3371 2773 c-52 -26 -73 -67 -68 -136 4 -69 32 -104 117 -143 30 -15
63 -33 73 -42 21 -19 22 -42 2 -42 -8 0 -15 9 -15 20 0 19 -7 20 -90 20 l-90
0 0 -39 c0 -55 37 -96 103 -116 101 -30 200 -14 254 40 29 29 33 40 33 84 0
96 -44 153 -143 187 -49 17 -73 37 -62 54 10 17 25 11 25 -10 0 -19 7 -20 90
-20 l91 0 -7 38 c-16 86 -75 122 -202 122 -51 0 -88 -6 -111 -17z"/>
<path d="M1590 2733 c-26 -106 -100 -424 -100 -433 0 -6 40 -10 100 -10 l100
0 0 26 c0 33 33 30 38 -4 3 -21 7 -22 103 -22 54 0 99 4 99 9 0 4 -25 111 -55
237 -30 126 -55 232 -55 237 0 4 -49 7 -109 7 l-109 0 -12 -47z m130 -218 c0
-43 -4 -75 -10 -75 -6 0 -10 32 -10 75 0 43 4 75 10 75 6 0 10 -32 10 -75z"/>
<path d="M1940 2776 c0 -3 27 -80 60 -171 53 -147 60 -175 60 -241 l0 -74 100
0 100 0 0 76 c0 74 21 144 117 402 4 9 -20 12 -101 12 l-106 0 0 -100 c0 -60
-4 -100 -10 -100 -5 0 -10 24 -10 54 0 29 -3 74 -6 100 l-7 46 -98 0 c-55 0
-99 -2 -99 -4z"/>
<path d="M2451 2558 c-29 -123 -55 -233 -58 -245 -5 -23 -4 -23 95 -23 97 0
101 1 104 22 5 34 38 37 38 4 l0 -26 100 0 c80 0 100 3 100 14 0 8 -22 108
-50 223 -27 114 -52 218 -55 231 -5 21 -10 22 -113 22 l-108 0 -53 -222z m169
-43 c0 -43 -4 -75 -10 -75 -6 0 -10 32 -10 75 0 43 4 75 10 75 6 0 10 -32 10
-75z"/>
<path d="M2850 2535 l0 -245 85 0 c74 0 85 2 85 18 -1 9 -7 67 -14 127 -7 61
-12 112 -10 114 9 10 15 -13 36 -130 l23 -124 108 -3 107 -3 0 246 0 245 -86
0 -87 0 6 -42 c16 -117 20 -181 10 -175 -6 4 -13 26 -17 49 -4 24 -11 71 -17
106 l-11 62 -109 0 -109 0 0 -245z"/>
<path d="M3720 2535 l0 -245 105 0 105 0 0 245 0 245 -105 0 -105 0 0 -245z"/>
<path d="M832 2088 l3 -73 1665 0 1665 0 3 73 3 72 -1671 0 -1671 0 3 -72z"/>
</g>
</svg>
